<?xml version="1.0" encoding="UTF-8"?>
<svg id="Vrstva_1" data-name="Vrstva 1" xmlns="http://www.w3.org/2000/svg" viewBox="0 0 269.29 269.29">
  <polygon points="107.71 0 107.71 107.71 0 107.71 0 161.57 107.71 161.57 107.71 269.29 161.57 269.29 161.57 161.57 269.29 161.57 269.29 107.71 161.57 107.71 161.57 0 107.71 0" style="fill: rgb(207,0,0);"/>
  <path d="M195.03,102.58h31.31c8.04-10.33,28.46-17.07,25.85-36.78-.7-5.33-4.18-10.64-8.24-13.85-11.66,21.31-38.38,28.2-48.92,50.63" style="fill: rgb(207,0,0);"/>
  <path d="M166.67,77.48c5.76-5.82,12.85-14.18,21.91-21.62,8.3-6.82,19.22-13.21,19.88-24.35,.5-8.46-3.71-13.61-9.94-16.4,0,0-2.78,4.8-6.96,8.45-5.79,5.06-22.42,13.76-24.36,20.88-1.65,6.07,.27,21.16-.53,33.04" style="fill: rgb(207,0,0);"/>
  <path d="M179.62,72.76c-7.4,7.89-15.07,14.48-12.43,29.82h19.88c4.81-7.04,10.86-14.79,19.38-22.37,7.58-6.74,17.26-13.16,22.37-19.38,7.56-9.22,5.92-26.65-5.55-31.3-9.72,16.36-29.93,28.6-43.65,43.23" style="fill: rgb(207,0,0);"/>
  <path d="M102.58,74.25v-31.31c-10.32-8.04-17.07-28.46-36.78-25.85-5.33,.7-10.64,4.18-13.85,8.24,21.31,11.67,28.2,38.39,50.63,48.92" style="fill: rgb(207,0,0);"/>
  <path d="M77.48,102.62c-5.82-5.76-14.18-12.85-21.62-21.91-6.82-8.3-13.21-19.22-24.35-19.88-8.46-.5-13.61,3.71-16.4,9.94,0,0,4.8,2.78,8.45,6.96,5.06,5.79,13.76,22.43,20.88,24.36,6.07,1.65,21.16-.28,33.04,.53" style="fill: rgb(207,0,0);"/>
  <path d="M72.76,89.66c7.89,7.4,14.48,15.07,29.82,12.43v-19.89c-7.04-4.81-14.79-10.86-22.37-19.38-6.74-7.58-13.16-17.26-19.38-22.37-9.22-7.56-26.65-5.92-31.3,5.55,16.37,9.73,28.6,29.94,43.23,43.66" style="fill: rgb(207,0,0);"/>
  <path d="M74.25,166.7h-31.31c-8.05,10.33-28.46,17.07-25.85,36.78,.7,5.33,4.18,10.64,8.24,13.85,11.67-21.3,38.39-28.2,48.92-50.63" style="fill: rgb(207,0,0);"/>
  <path d="M102.62,191.8c-5.76,5.82-12.85,14.18-21.91,21.62-8.3,6.82-19.21,13.2-19.88,24.35-.5,8.46,3.71,13.61,9.94,16.4,0,0,2.78-4.8,6.96-8.45,5.79-5.06,22.42-13.76,24.36-20.88,1.65-6.06-.28-21.15,.53-33.04" style="fill: rgb(207,0,0);"/>
  <path d="M89.66,196.52c7.4-7.89,15.07-14.48,12.43-29.82h-19.89c-4.81,7.04-10.86,14.79-19.38,22.37-7.57,6.74-17.26,13.16-22.37,19.38-7.56,9.22-5.92,26.65,5.55,31.3,9.73-16.36,29.94-28.6,43.66-43.23" style="fill: rgb(207,0,0);"/>
  <path d="M166.7,195.03v31.31c10.33,8.04,17.07,28.46,36.78,25.84,5.33-.7,10.64-4.18,13.85-8.24-21.3-11.65-28.2-38.37-50.63-48.91" style="fill: rgb(207,0,0);"/>
  <path d="M191.8,166.67c5.82,5.76,14.18,12.85,21.62,21.91,6.82,8.3,13.21,19.22,24.35,19.88,8.46,.5,13.61-3.71,16.4-9.94,0,0-4.8-2.78-8.45-6.96-5.06-5.79-13.76-22.42-20.88-24.36-6.06-1.65-21.15,.27-33.04-.53" style="fill: rgb(207,0,0);"/>
  <path d="M196.52,179.62c-7.89-7.4-14.48-15.07-29.82-12.43v19.88c7.04,4.81,14.79,10.86,22.37,19.38,6.74,7.57,13.16,17.26,19.38,22.37,9.22,7.56,26.65,5.92,31.3-5.55-16.36-9.72-28.6-29.93-43.23-43.65" style="fill: rgb(207,0,0);"/>
</svg>
